<?xml version="1.0" encoding="utf-8"?>
<!-- Generator: Adobe Illustrator 14.0.0, SVG Export Plug-In . SVG Version: 6.00 Build 43363)  -->
<!DOCTYPE svg PUBLIC "-//W3C//DTD SVG 1.1//EN" "http://www.w3.org/Graphics/SVG/1.1/DTD/svg11.dtd">
<svg version="1.1"
	 id="svg2" xmlns:cc="http://creativecommons.org/ns#" xmlns:dc="http://purl.org/dc/elements/1.1/" xmlns:rdf="http://www.w3.org/1999/02/22-rdf-syntax-ns#"
	 xmlns="http://www.w3.org/2000/svg" xmlns:xlink="http://www.w3.org/1999/xlink" x="0px" y="0px" width="365.434px"
	 height="274.181px" viewBox="0 0 365.434 274.181" enable-background="new 0 0 365.434 274.181" xml:space="preserve">
<path id="path1495" fill-opacity="0" stroke="#2668BC" stroke-width="3.7045" d="M60.368,189.23c0,0,59.162-154.44,131.56-91.606
	c39.779,34.516,106.16-60.701,115.85-72.667"/>
<path id="path6" fill="#8F8F8F" d="M21.653-7.879l0.977,0.979L21.653-7.879z"/>
<path id="path116" fill="#F9E1E7" d="M216.97,34.085l0.899,0.956L216.97,34.085z"/>
<path id="path308" fill="#9696FF" d="M95,161h3H95z"/>
<path id="path314" fill="#4A4A4A" d="M382,286h1H382z"/>
<path fill="none" d=""/>
<path id="path4332" stroke="#000000" d="M1.42,234.469"/>
<path id="path4520" fill="#2668BC" stroke="#DD0000" stroke-width="3.7045" d="M60.963,186.03L307.473,25.1"/>
<path id="path4522" fill="none" stroke="#000000" stroke-width="1.9634" stroke-dasharray="11.7804,1.9634" d="M61.773,188.23
	v44.511"/>
<path id="path4526" fill="none" stroke="#000000" stroke-width="1.8822" stroke-dasharray="11.293,1.8822" d="M306.581,27.005v206.3
	"/>
<path id="path5409" fill="#DD0000" d="M65.53,184.594c0.933,2.363-0.058,5.107-2.213,6.129c-2.154,1.023-4.657-0.063-5.589-2.426
	c-0.932-2.363,0.059-5.107,2.213-6.13c1.917-0.909,4.152-0.157,5.273,1.774"/>
<path id="path5419" fill="#DD0000" d="M309.991,24.467c0.932,2.362-0.059,5.107-2.213,6.129s-4.656-0.064-5.59-2.427
	c-0.932-2.363,0.059-5.107,2.213-6.129c1.916-0.91,4.152-0.158,5.273,1.774"/>
<path id="path2839" d="M312,259.84c0-1.789-0.475-3.188-1.424-4.199c-0.936-1.012-2.232-1.517-3.891-1.517
	c-1.205,0-2.338,0.259-3.4,0.776c-1.049,0.506-1.963,1.246-2.742,2.221c-0.822,1.023-1.475,2.213-1.955,3.569
	c-0.469,1.345-0.702,2.688-0.702,4.032c0,1.701,0.46,3.04,1.382,4.014c0.936,0.963,2.217,1.443,3.848,1.443
	c1.232,0,2.373-0.246,3.422-0.74c1.049-0.506,1.969-1.245,2.764-2.219c0.807-1.012,1.459-2.189,1.955-3.533
	C311.752,262.343,312,261.061,312,259.84 M299.842,254.92c0.963-1.135,2.168-2.023,3.613-2.664c1.459-0.654,2.982-0.98,4.57-0.98
	c2.438,0,4.371,0.715,5.803,2.146c1.445,1.43,2.168,3.365,2.168,5.807c0,1.998-0.426,3.935-1.275,5.809
	c-0.836,1.875-2.033,3.539-3.592,4.994c-1.021,0.963-2.197,1.702-3.529,2.221c-1.332,0.518-2.727,0.776-4.188,0.776
	c-1.545,0-2.883-0.309-4.018-0.925c-1.133-0.617-2.055-1.535-2.763-2.756l-0.702,3.145h-3.91l6.439-28.783h3.912l-2.529,11.209"/>
<a id="a5433" transform="matrix(0.976693,0,0,0.979531,-9.289365,-26.84006)">
	<g id="text5429" transform="scale(1.073537,0.9315)">
		<path id="path2842" d="M78.35,313.04l-2.534,12.955h-3.73l0.689-3.446c-1.095,1.351-2.345,2.365-3.751,3.041
			c-1.392,0.663-2.946,0.993-4.662,0.993c-1.933,0-3.521-0.588-4.764-1.764c-1.23-1.189-1.845-2.709-1.845-4.56
			c0-2.65,1.054-4.745,3.162-6.285c2.122-1.541,5.041-2.312,8.757-2.312h5.19l0.203-0.993c0.027-0.107,0.047-0.223,0.061-0.345
			c0.014-0.135,0.02-0.338,0.02-0.608c0-1.203-0.493-2.135-1.48-2.798c-0.973-0.676-2.345-1.014-4.115-1.014
			c-1.216,0-2.466,0.155-3.75,0.466c-1.27,0.311-2.581,0.778-3.933,1.4l0.649-3.446c1.405-0.527,2.777-0.919,4.115-1.176
			c1.351-0.271,2.655-0.406,3.912-0.406c2.676,0,4.71,0.582,6.102,1.745c1.405,1.161,2.108,2.851,2.108,5.067
			c0,0.446-0.034,0.974-0.102,1.582C78.587,311.73,78.485,312.364,78.35,313.04 M74.316,314.581h-3.73
			c-3.054,0-5.318,0.412-6.791,1.237c-1.459,0.81-2.189,2.074-2.189,3.79c0,1.189,0.372,2.122,1.115,2.798
			c0.757,0.675,1.798,1.014,3.122,1.014c2.027,0,3.798-0.724,5.312-2.168c1.513-1.46,2.514-3.406,3-5.839L74.316,314.581"/>
	</g>
</a>
<path id="path5440" d="M310.444,234.087c0.924,2.367-0.078,5.106-2.236,6.119c-2.16,1.012-4.658-0.086-5.58-2.453
	c-0.924-2.367,0.078-5.107,2.236-6.119c1.92-0.9,4.15-0.139,5.266,1.797"/>
<path id="path5442" d="M66.053,233.087c0.923,2.367-0.079,5.106-2.237,6.119c-2.159,1.012-4.657-0.086-5.58-2.453
	c-0.923-2.367,0.079-5.107,2.237-6.119c1.919-0.9,4.151-0.139,5.265,1.797"/>
<path fill="none" d=""/>
<path id="path4507_1_" stroke="#000000" d="M31.781,31.801l10.16,10.115L31.725,6.458L21.666,41.961L31.781,31.801z"/>
<path id="path1329" stroke="#000000" d="M32.321,274.181"/>
<line fill="none" stroke="#000000" stroke-width="4" x1="31.781" y1="31.801" x2="31.781" y2="267.6"/>
<line fill="none" stroke="#000000" stroke-width="4" x1="1.42" y1="235.92" x2="338.93" y2="235.92"/>
<path id="path4507_2_" stroke="#000000" d="M340.09,235.717l-10.115,10.16l35.459-10.215l-35.504-10.059L340.09,235.717z"/>
</svg>
